<?xml version="1.0" encoding="UTF-8"?>
<!DOCTYPE svg PUBLIC "-//W3C//DTD SVG 1.1//EN" "http://www.w3.org/Graphics/SVG/1.1/DTD/svg11.dtd">
<!-- Creator: CorelDRAW (Versión de evaluación) -->
<svg xmlns="http://www.w3.org/2000/svg" xml:space="preserve" width="91.44mm" height="114.3mm" version="1.1" style="shape-rendering:geometricPrecision; text-rendering:geometricPrecision; image-rendering:optimizeQuality; fill-rule:evenodd; clip-rule:evenodd"
viewBox="0 0 9144 11430"
 xmlns:xlink="http://www.w3.org/1999/xlink"
 xmlns:xodm="http://www.corel.com/coreldraw/odm/2003">
 <defs>
  <style type="text/css">
   <![CDATA[
    .fil0 {fill:white;fill-opacity:0.149020}
    .fil1 {fill:#D3AF37;fill-opacity:0.301961}
   ]]>
  </style>
 </defs>
 <g id="Borde_x0020_y_x0020_contorno">
  <metadata id="CorelCorpID_0Corel-Layer"/>
  <g id="_310061816">
   <polygon class="fil0" points="6524.94,0 4572.01,1589.7 2619.08,0 "/>
   <polygon class="fil0" points="9144.01,0 6376.94,0 9144.01,0 9144.01,46.33 9144,467.78 9144,46.33 9144.01,467.78 7055.06,2168.19 4391.46,0 6376.94,0 "/>
   <polygon class="fil0" points="0.01,429.91 0.01,0 4799.06,0 2135.46,2168.19 "/>
   <polygon class="fil0" points="5695.02,0 4587.53,901.51 3480.04,0 "/>
   <polygon class="fil0" points="2724.23,0 0.01,2285.89 0.01,370.54 0.01,-0.01 "/>
   <polygon class="fil0" points="6419.78,0.01 9144,2285.9 9144.02,467.78 9144,0 "/>
   <polygon class="fil1" points="0.01,-0.01 898.93,-0.01 898.93,4038.9 0.01,4907.21 "/>
   <polygon class="fil1" points="9144,0 8694.54,0 8694.54,7246.58 9144,8804.5 "/>
   <polygon class="fil1" points="0.01,11430 898.93,11430 898.93,8648.64 0.01,8050.68 "/>
   <polygon class="fil0" points="2724.23,11429.99 0.01,9144.1 0.01,11059.45 0.01,11430 "/>
   <polygon class="fil0" points="0.01,11000.09 0.01,11430 5666.15,11430 2135.46,9261.81 "/>
  </g>
 </g>
</svg>
