<?xml version="1.0" encoding="UTF-8"?>
<!DOCTYPE svg PUBLIC "-//W3C//DTD SVG 1.1//EN" "http://www.w3.org/Graphics/SVG/1.1/DTD/svg11.dtd">
<!-- Creator: CorelDRAW (Versión de evaluación) -->
<svg xmlns="http://www.w3.org/2000/svg" xml:space="preserve" width="91.44mm" height="114.3mm" version="1.1" style="shape-rendering:geometricPrecision; text-rendering:geometricPrecision; image-rendering:optimizeQuality; fill-rule:evenodd; clip-rule:evenodd"
viewBox="0 0 9144 11430"
 xmlns:xlink="http://www.w3.org/1999/xlink"
 xmlns:xodm="http://www.corel.com/coreldraw/odm/2003">
 <defs>
  <style type="text/css">
   <![CDATA[
    .fil0 {fill:white;fill-opacity:0.149020}
    .fil1 {fill:#700018;fill-opacity:0.301961}
   ]]>
  </style>
 </defs>
 <g id="Borde_x0020_y_x0020_contorno">
  <metadata id="CorelCorpID_0Corel-Layer"/>
  <polygon class="fil0" points="6524.93,0 4572,1589.7 2619.07,0 "/>
  <polygon class="fil0" points="9144,0 6376.93,0 9144,0 9144,46.33 9143.99,467.78 9143.99,46.33 9144,467.78 7055.05,2168.19 4391.45,0 6376.93,0 "/>
  <polygon class="fil0" points="-0,429.91 -0,0 4799.05,0 2135.45,2168.19 "/>
  <polygon class="fil0" points="5695.01,0 4587.52,901.51 3480.03,0 "/>
  <polygon class="fil0" points="2724.22,0 -0,2285.89 -0,370.54 -0,-0.01 "/>
  <polygon class="fil0" points="6419.77,0.01 9143.99,2285.9 9144.01,467.78 9143.99,0 "/>
  <polygon class="fil1" points="-0,-0.01 898.92,-0.01 898.92,4038.9 -0,4907.21 "/>
  <polygon class="fil1" points="9143.99,0 8694.53,0 8694.53,7246.58 9143.99,8804.5 "/>
  <polygon class="fil1" points="-0,11430 898.92,11430 898.92,8648.64 -0,8050.68 "/>
  <polygon class="fil0" points="2724.22,11429.99 -0,9144.1 -0,11059.45 -0,11430 "/>
  <polygon class="fil0" points="-0,11000.09 -0,11430 5666.14,11430 2135.45,9261.81 "/>
 </g>
</svg>
