<?xml version="1.0" encoding="UTF-8" standalone="no"?>
<!-- Created with Inkscape (http://www.inkscape.org/) -->

<svg
   width="210mm"
   height="297mm"
   viewBox="0 0 210 297"
   version="1.1"
   id="svg1"
   xml:space="preserve"
   inkscape:version="1.3.2 (091e20e, 2023-11-25, custom)"
   sodipodi:docname="liahonapplogo.svg"
   xmlns:inkscape="http://www.inkscape.org/namespaces/inkscape"
   xmlns:sodipodi="http://sodipodi.sourceforge.net/DTD/sodipodi-0.dtd"
   xmlns="http://www.w3.org/2000/svg"
   xmlns:svg="http://www.w3.org/2000/svg"><sodipodi:namedview
     id="namedview1"
     pagecolor="#ffffff"
     bordercolor="#000000"
     borderopacity="0.25"
     inkscape:showpageshadow="2"
     inkscape:pageopacity="0.0"
     inkscape:pagecheckerboard="0"
     inkscape:deskcolor="#d1d1d1"
     inkscape:document-units="mm"
     inkscape:zoom="1.0431888"
     inkscape:cx="-103.52871"
     inkscape:cy="461.56552"
     inkscape:window-width="3440"
     inkscape:window-height="1406"
     inkscape:window-x="-11"
     inkscape:window-y="493"
     inkscape:window-maximized="1"
     inkscape:current-layer="layer1" /><defs
     id="defs1"><inkscape:path-effect
       effect="powerclip"
       id="path-effect7"
       is_visible="true"
       lpeversion="1"
       inverse="true"
       flatten="false"
       hide_clip="false"
       message="Utilice la regla de relleno parimpar en el diálogo &lt;b&gt;Relleno y borde&lt;/b&gt; si el resultado no está aplanada después de convertir el recorte en trayectos." /><clipPath
       clipPathUnits="userSpaceOnUse"
       id="clipPath7"><ellipse
         style="display:none;fill:#ffffff;stroke-width:0.235;stroke-dasharray:none"
         id="ellipse7"
         cx="209.24423"
         cy="126.43425"
         rx="21.685312"
         ry="21.875536"
         d="m 230.92954,126.43425 a 21.685312,21.875536 0 0 1 -21.68531,21.87554 21.685312,21.875536 0 0 1 -21.68531,-21.87554 21.685312,21.875536 0 0 1 21.68531,-21.87554 21.685312,21.875536 0 0 1 21.68531,21.87554 z" /><path
         id="lpe_path-effect7"
         style="fill:#ffffff;stroke-width:0.235;stroke-dasharray:none"
         class="powerclip"
         d="m 179.45196,96.578569 h 59.58454 v 59.711361 h -59.58454 z m 51.47758,29.855681 a 21.685312,21.875536 0 0 0 -21.68531,-21.87554 21.685312,21.875536 0 0 0 -21.68531,21.87554 21.685312,21.875536 0 0 0 21.68531,21.87554 21.685312,21.875536 0 0 0 21.68531,-21.87554 z" /></clipPath></defs><g
     inkscape:label="Capa 1"
     inkscape:groupmode="layer"
     id="layer1"><g
       id="g2"
       transform="translate(-37.959128,59.676533)"><circle
         id="path13"
         style="fill:#d5b366;stroke:#000000;stroke-width:0.264583"
         cx="41.087959"
         cy="72.664818"
         r="0.015002926" /><g
         id="g14"
         transform="translate(0,11.01747)"><path
           style="fill:#d5b366;fill-opacity:1;stroke-width:0.267659"
           id="ellipse2"
           clip-path="url(#clipPath7)"
           inkscape:path-effect="#path-effect7"
           sodipodi:type="arc"
           sodipodi:cx="209.24423"
           sodipodi:cy="126.43425"
           sodipodi:rx="24.792273"
           sodipodi:ry="24.85568"
           d="m 234.0365,126.43425 a 24.792273,24.85568 0 0 1 -24.79227,24.85568 24.792273,24.85568 0 0 1 -24.79227,-24.85568 24.792273,24.85568 0 0 1 24.79227,-24.85568 24.792273,24.85568 0 0 1 24.79227,24.85568 z"
           transform="translate(-58.831837,-69.596039)" /><path
           style="fill:#d5b366;fill-opacity:1;stroke-width:0.235;stroke-dasharray:none"
           d="M 159.31095,44.543659 147.7391,67.845857 147.6757,54.244983 Z"
           id="path14" /></g><g
         id="g1"><text
           xml:space="preserve"
           style="font-size:36.4086px;font-family:Rotters;-inkscape-font-specification:'Rotters, Normal';fill:#d5b366;fill-opacity:1;stroke-width:0.0610268;stroke-dasharray:none"
           x="59.699497"
           y="119.99171"
           id="text14"
           transform="scale(0.9624001,1.0390689)"><tspan
             sodipodi:role="line"
             id="tspan14"
             style="font-style:normal;font-variant:normal;font-weight:600;font-stretch:normal;font-family:Poppins;-inkscape-font-specification:'Poppins Semi-Bold';fill:#ffffff;stroke-width:0.0610268"
             x="59.699497"
             y="119.99171">Liahon</tspan></text><text
           xml:space="preserve"
           style="font-size:36.4086px;font-family:Rotters;-inkscape-font-specification:'Rotters, Normal';fill:#d5b366;fill-opacity:1;stroke-width:0.0610268;stroke-dasharray:none"
           x="181.69502"
           y="119.97235"
           id="text1"
           transform="scale(0.96240009,1.0390689)"><tspan
             sodipodi:role="line"
             id="tspan1"
             style="font-style:normal;font-variant:normal;font-weight:600;font-stretch:normal;font-family:Poppins;-inkscape-font-specification:'Poppins Semi-Bold';fill:#d5b366;fill-opacity:1;stroke-width:0.0610268"
             x="181.69502"
             y="119.97235">app</tspan></text></g></g></g></svg>
